<svg xmlns="http://www.w3.org/2000/svg" width="266.07" height="266.07" viewBox="0 0 266.07 266.07"><defs><style>.cls-1{fill:#fff;}.cls-2{fill:#0096ca;}.cls-3{fill:#ffe45d;}</style></defs><g id="Шар_2" data-name="Шар 2"><g id="Layer_1" data-name="Layer 1"><rect class="cls-1" width="266.07" height="266.07"/><polygon class="cls-2" points="172.12 69.4 163.47 78.05 177.42 74.4 186.09 65.74 180.39 60.04 174.7 54.35 166.03 63.02 162.38 76.96 171.03 68.31 172.12 69.4"/><path class="cls-3" d="M187.16,163.69a13.89,13.89,0,1,0,9.82,4.07A13.82,13.82,0,0,0,187.16,163.69Zm-6.76,20.65-1.08,1.09a11.11,11.11,0,0,1,0-15.7l1.08,1.1a9.55,9.55,0,0,0,0,13.51Z"/><path class="cls-1" d="M198.87,187.6c-.26.3-.52.61-.8.89s-.59.54-.89.8l8.52,8.51,1.69-1.69Z"/><rect class="cls-2" x="211.43" y="195.98" width="2.39" height="14.14" transform="translate(-81.3 209.84) rotate(-45)"/><path class="cls-2" d="M137.72,190a2.26,2.26,0,1,0,2.26,2.26A2.27,2.27,0,0,0,137.72,190Z"/><path class="cls-3" d="M92.61,148.35l-6,1.82-.32-.49a17.34,17.34,0,0,0-2.84-3.45l-.42-.41,3-5.55-7.3-3.91-.91,1.71-.92,1.71-1.14,2.14-.57-.13a17.62,17.62,0,0,0-4-.45l-1.08,0-1.83-6-7.92,2.4,1.83,6-.5.31a18.18,18.18,0,0,0-3.46,2.84l-.4.43-5.55-3-3.9,7.3,5.56,3-.14.57a18.12,18.12,0,0,0-.44,4.45l0,.59-6,1.83,2.4,7.92,6-1.84.31.51a17.92,17.92,0,0,0,2.84,3.46l.42.4-3,5.55,7.29,3.9,3-5.56.57.13a17.08,17.08,0,0,0,4.45.44h.59l1.83,6,7.92-2.4-1.83-6,.5-.31a17.34,17.34,0,0,0,3.45-2.84l.41-.43,5.56,3,3.9-7.3-5.56-3,.13-.58a18,18,0,0,0,.44-4.45l0-.59,1.78-.53,1.79-.55,2.46-.74Zm-18.25,21.3a11.15,11.15,0,0,1-3.19.47,10.94,10.94,0,1,1,3.19-.47Z"/><rect class="cls-1" x="164.53" y="141.2" width="19.58" height="6.25"/><rect class="cls-3" x="148.7" y="209.26" width="49.18" height="3.09"/><polygon class="cls-2" points="121.32 119.11 135.65 115.36 125.07 104.78 121.32 119.11"/><path d="M179.32,169.73a11.11,11.11,0,0,0,0,15.7l1.08-1.09a9.55,9.55,0,0,1,0-13.51Z"/><path d="M218.8,198.84V131.18H166.59a47.58,47.58,0,0,0-10.25-42.07l-1.16,1A46.11,46.11,0,0,1,165,131.18H152a33.53,33.53,0,0,0-5.61-32.11l-1.19,1a31.88,31.88,0,0,1,5.14,31.14H135.68a18.83,18.83,0,0,0,3.53-11h-1.54a17.23,17.23,0,0,1-3.9,11h-6v4.71a17.42,17.42,0,1,1-7.52-33.13v-1.54a19,19,0,0,0,0,37.93,18.79,18.79,0,0,0,7.52-1.56V151.3a32,32,0,1,1-7.52-63.15,31.69,31.69,0,0,1,19.89,6.92l1-1.2a33.16,33.16,0,0,0-20.84-7.25,33.57,33.57,0,1,0,7.52,66.28v12.75a45.79,45.79,0,0,1-33.63-7.51l2.8-.85-3.3-10.86-6.38,1.94a19.46,19.46,0,0,0-2.35-2.85l3.15-5.89-10-5.35-1,1.92a46.08,46.08,0,0,1,73.24-51l1-1.17A47.61,47.61,0,0,0,76.08,138l-1.18,2.2a19.6,19.6,0,0,0-3.67-.37l-1.94-6.38-10.86,3.3,1.94,6.38a20,20,0,0,0-2.85,2.34l-5.88-3.14-5.35,10,5.88,3.14a19,19,0,0,0-.36,3.68l-6.38,1.93,3.29,10.86L55.11,170a19.16,19.16,0,0,0,2.34,2.85l-3.14,5.89,10,5.34,3.14-5.88a19,19,0,0,0,3.68.36l1.94,6.38,10.86-3.3L82,175.25a19.28,19.28,0,0,0,2.85-2.34l5.89,3.15,5.35-10-5.89-3.15a18.87,18.87,0,0,0,.36-3.67l1.73-.53a47.31,47.31,0,0,0,28,9.12,47.79,47.79,0,0,0,7.52-.6v31.62h76.79l12.22,12.22,3.86-3.86-8.36-8.36Zm-128-41.28-1.78.53,0,.59a18,18,0,0,1-.44,4.45l-.13.58,5.56,3L90.1,174l-5.56-3-.41.43a17.34,17.34,0,0,1-3.45,2.84l-.5.31,1.83,6L74.09,183l-1.83-6h-.59a17.08,17.08,0,0,1-4.45-.44l-.57-.13-3,5.56-7.29-3.9,3-5.55-.42-.4a17.92,17.92,0,0,1-2.84-3.46l-.31-.51-6,1.84-2.4-7.92,6-1.83,0-.59a18.12,18.12,0,0,1,.44-4.45l.14-.57-5.56-3,3.9-7.3,5.55,3,.4-.43a18.18,18.18,0,0,1,3.46-2.84l.5-.31-1.83-6,7.92-2.4,1.83,6,1.08,0a17.62,17.62,0,0,1,4,.45l.57.13,1.14-2.14.92-1.71.91-1.71,7.3,3.91-3,5.55.42.41a17.34,17.34,0,0,1,2.84,3.45l.32.49,6-1.82L95,156.27l-2.46.74Zm38.54,39.74V132.72h87.95V197.3h-6.52l-10.92-10.92a15.46,15.46,0,1,0-3.86,3.86L203,197.3ZM197,187.4a13.88,13.88,0,0,1-19.64,0,13.89,13.89,0,1,1,19.64,0Zm.2,1.89c.3-.26.61-.52.89-.8s.54-.59.8-.89l8.52,8.51-1.69,1.69Zm21.29,17.91-1.69,1.69-10-10,1.69-1.68Z"/><rect x="202.58" y="185.79" width="1.4" height="1.54"/><rect x="205.67" y="185.79" width="1.4" height="1.54"/><rect x="208.76" y="185.79" width="1.4" height="1.54"/><rect x="211.85" y="185.79" width="1.41" height="1.54"/><rect x="214.94" y="185.79" width="1.4" height="1.54"/><rect x="130.22" y="185.79" width="1.4" height="1.54"/><rect x="133.3" y="185.79" width="1.4" height="1.54"/><rect x="136.37" y="185.79" width="1.4" height="1.54"/><rect x="139.45" y="185.79" width="1.4" height="1.54"/><rect x="142.52" y="185.79" width="1.4" height="1.54"/><rect x="145.6" y="185.79" width="1.4" height="1.54"/><rect x="148.68" y="185.79" width="1.4" height="1.54"/><rect x="151.75" y="185.79" width="1.4" height="1.54"/><rect x="154.83" y="185.79" width="1.4" height="1.54"/><rect x="157.9" y="185.79" width="1.4" height="1.54"/><rect x="160.98" y="185.79" width="1.4" height="1.54"/><rect x="164.06" y="185.79" width="1.4" height="1.54"/><rect x="167.13" y="185.79" width="1.4" height="1.54"/><rect x="170.21" y="185.79" width="1.4" height="1.54"/><rect x="133.92" y="143.4" width="1.54" height="1.84"/><rect x="137.09" y="139.66" width="1.36" height="1.54"/><rect x="140.08" y="139.66" width="1.36" height="1.54"/><polygon points="147.42 141.2 147.42 139.87 147.42 139.66 146.06 139.66 146.06 141.2 146.41 141.2 147.42 141.2"/><rect x="149.05" y="139.66" width="1.36" height="1.54"/><rect x="152.04" y="139.66" width="1.36" height="1.54"/><rect x="155.04" y="143.4" width="1.54" height="1.84"/><rect x="152.04" y="147.45" width="1.36" height="1.54"/><rect x="149.05" y="147.45" width="1.36" height="1.54"/><rect x="146.06" y="147.45" width="1.36" height="1.54"/><rect x="143.07" y="147.45" width="1.36" height="1.54"/><rect x="140.08" y="147.45" width="1.36" height="1.54"/><polygon points="138.45 148.99 138.45 148.38 138.45 147.45 137.09 147.45 137.09 148.99 137.48 148.99 138.45 148.99"/><rect x="190.77" y="139.66" width="21.11" height="1.54"/><rect x="190.77" y="147.38" width="21.11" height="1.54"/><rect x="136.35" y="170.54" width="1.38" height="1.54"/><rect x="139.39" y="170.54" width="1.38" height="1.54"/><rect x="142.44" y="170.54" width="1.38" height="1.54"/><rect x="145.49" y="170.54" width="1.38" height="1.54"/><rect x="148.53" y="170.54" width="1.38" height="1.54"/><rect x="151.58" y="170.54" width="1.39" height="1.54"/><rect x="154.63" y="170.54" width="1.38" height="1.54"/><rect x="157.67" y="170.54" width="1.38" height="1.54"/><rect x="160.72" y="170.54" width="1.38" height="1.54"/><rect x="134.69" y="178.26" width="29.08" height="1.54"/><rect x="136.4" y="155.1" width="1.43" height="1.54"/><rect x="139.55" y="155.1" width="1.43" height="1.54"/><rect x="142.69" y="155.1" width="1.43" height="1.54"/><rect x="145.84" y="155.1" width="1.43" height="1.54"/><rect x="155.27" y="155.1" width="1.43" height="1.54"/><rect x="158.42" y="155.1" width="1.43" height="1.54"/><rect x="161.56" y="155.1" width="1.43" height="1.54"/><rect x="164.71" y="155.1" width="1.43" height="1.54"/><rect x="167.85" y="155.1" width="1.43" height="1.54"/><rect x="171" y="155.1" width="1.43" height="1.54"/><rect x="174.14" y="155.1" width="1.43" height="1.54"/><rect x="177.29" y="155.1" width="1.43" height="1.54"/><rect x="180.43" y="155.1" width="1.43" height="1.54"/><rect x="183.58" y="155.1" width="1.43" height="1.54"/><rect x="186.72" y="155.1" width="1.43" height="1.54"/><rect x="189.87" y="155.1" width="1.43" height="1.54"/><rect x="193.01" y="155.1" width="1.43" height="1.54"/><rect x="196.16" y="155.1" width="1.43" height="1.54"/><rect x="199.3" y="155.1" width="1.43" height="1.54"/><rect x="202.45" y="155.1" width="1.43" height="1.54"/><rect x="205.59" y="155.1" width="1.43" height="1.54"/><rect x="208.74" y="155.1" width="1.43" height="1.54"/><path d="M137.72,188.44a3.8,3.8,0,1,0,3.79,3.8A3.8,3.8,0,0,0,137.72,188.44Zm0,6.06a2.26,2.26,0,1,1,2.26-2.26A2.27,2.27,0,0,1,137.72,194.5Z"/><path d="M147.16,213.9h52.25v-6.17H147.16Zm1.54-4.64h49.17v3.1H148.7Z"/><rect x="160.31" y="205.61" width="1.54" height="1.31"/><rect x="160.31" y="202.72" width="1.54" height="1.31"/><rect x="160.31" y="199.84" width="1.54" height="1.31"/><rect x="183.16" y="205.61" width="1.54" height="1.31"/><path class="cls-2" d="M184.2,141.19H164.52v6.88H184.2Z"/><rect x="183.16" y="202.72" width="1.54" height="1.31"/><rect x="183.16" y="199.84" width="1.54" height="1.31"/><path d="M178.21,75.79l10-10.05L181.48,59l-6.78-6.78-10,10-4.42,16.9-29.32,29.33-6.65-6.65-5.09,19.46,19.47-5.09L132,109.53,161.32,80.2ZM166,63l8.67-8.67L180.39,60l5.7,5.7-8.67,8.66-13.95,3.65,8.65-8.65L171,68.31,162.39,77Zm-30.38,52.34-14.33,3.75,3.75-14.33Z"/><path d="M185.65,139.66H163V149h22.65Zm-1.54,7.79H164.53V141.2h19.58Z"/><polygon points="137.74 162.82 134.69 162.82 134.69 163.95 134.69 164.36 138.03 164.36 163.76 164.36 163.76 162.82 141.45 162.82 137.74 162.82"/><polygon points="150.41 155.1 150.29 155.1 148.98 155.1 148.98 156.19 148.98 156.64 150.41 156.64 150.41 155.1"/><polygon points="152.13 155.1 152.13 155.54 152.13 156.64 153.56 156.64 153.56 155.1 152.6 155.1 152.13 155.1"/><path d="M144.43,139.66h-1.36v1.54h1.36Z"/><path d="M119.05,115.68l-.4-1.49a6.22,6.22,0,0,0,1.17,12.2h.43a6.23,6.23,0,0,0,6-4.53l-1.48-.41a4.67,4.67,0,1,1-5.71-5.78Z"/><path d="M71.19,148.23a10.95,10.95,0,0,0,0,21.89,11.15,11.15,0,0,0,3.19-.47,10.95,10.95,0,0,0-3.17-21.42Zm2.72,19.94a9.08,9.08,0,0,1-2.73.41,9.41,9.41,0,0,1,0-18.81,9.4,9.4,0,0,1,2.72,18.4Z"/><polygon points="194.19 111.72 205.22 99.29 211.05 107.92 218.76 97.81 217.54 96.88 211.12 105.29 205.38 96.79 194.33 109.25 189.77 102.81 177.33 115.83 218.15 115.83 218.15 114.29 180.93 114.29 189.59 105.22 194.19 111.72"/><polygon points="194.84 101.87 204.59 90.88 204.71 92.69 206.24 92.59 205.96 88.17 201.47 88.46 201.57 89.99 203.43 89.87 193.69 100.85 194.84 101.87"/><path class="cls-2" d="M58.21,111.63a3.85,3.85,0,0,0-1.94.51,6.08,6.08,0,0,0-11.36,1.47,3.29,3.29,0,0,0-2-.71,3.33,3.33,0,1,0,0,6.65H58.21a4,4,0,1,0,0-7.92Z"/><path class="cls-2" d="M97.25,48.22a6,6,0,0,1,3,.79,9.4,9.4,0,0,1,17.54,2.27,5.06,5.06,0,0,1,3.16-1.1,5.14,5.14,0,1,1,0,10.27H97.25a6.12,6.12,0,0,1,0-12.23Z"/><path class="cls-2" d="M200.82,75.17a2.89,2.89,0,0,1,1.43.38,4.48,4.48,0,0,1,8.37,1.08,2.43,2.43,0,0,1,1.51-.52,2.45,2.45,0,1,1,0,4.9H200.82a2.92,2.92,0,1,1,0-5.84Z"/><polygon points="184.59 91.58 178.18 91.58 178.18 85.16 176.4 85.16 176.4 91.58 169.98 91.58 169.98 93.35 176.4 93.35 176.4 99.77 178.18 99.77 178.18 93.35 184.59 93.35 184.59 91.58"/><polygon points="93.01 230.47 94.79 230.47 94.79 216.74 108.52 216.74 108.52 214.96 93.01 214.96 93.01 230.47"/><polygon points="227.9 165.81 229.68 165.81 229.68 152.08 243.41 152.08 243.41 150.3 227.9 150.3 227.9 165.81"/><rect x="41.65" y="193.53" width="42.57" height="1.78"/><rect x="77.91" y="68.88" width="1.75" height="1.77"/><rect x="81.75" y="68.88" width="1.74" height="1.77"/><rect x="85.59" y="68.88" width="1.74" height="1.77"/><rect x="89.43" y="68.88" width="1.74" height="1.77"/><rect x="93.26" y="68.88" width="1.75" height="1.77"/><rect x="166.58" y="35.39" width="1.67" height="1.77"/><rect x="162.89" y="35.39" width="1.68" height="1.77"/><rect x="159.21" y="35.39" width="1.68" height="1.77"/><rect x="155.52" y="35.39" width="1.67" height="1.77"/><rect x="151.83" y="35.39" width="1.67" height="1.77"/><rect x="148.14" y="35.39" width="1.68" height="1.77"/><rect x="144.46" y="35.39" width="1.67" height="1.77"/><rect x="140.77" y="35.39" width="1.67" height="1.77"/><rect x="137.08" y="35.39" width="1.68" height="1.77"/><rect x="133.39" y="35.39" width="1.68" height="1.77"/><rect x="129.71" y="35.39" width="1.68" height="1.77"/><rect x="110.59" y="204.72" width="1.68" height="1.77"/><rect x="106.91" y="204.72" width="1.68" height="1.77"/><rect x="103.22" y="204.72" width="1.68" height="1.77"/><rect x="99.53" y="204.72" width="1.68" height="1.77"/><rect x="95.85" y="204.72" width="1.68" height="1.77"/><rect x="92.16" y="204.72" width="1.68" height="1.77"/><rect x="88.47" y="204.72" width="1.68" height="1.77"/><rect x="84.78" y="204.72" width="1.68" height="1.77"/><rect x="81.1" y="204.72" width="1.68" height="1.77"/><rect x="77.41" y="204.72" width="1.68" height="1.77"/><rect x="73.72" y="204.72" width="1.68" height="1.77"/><rect x="107.97" y="191.73" width="10.8" height="1.77"/><rect x="107.97" y="186.08" width="10.8" height="1.77"/><polygon points="93.74 181.49 102.04 189.79 93.74 198.09 94.99 199.35 104.55 189.79 94.99 180.24 93.74 181.49"/></g></g></svg>